<mxfile host="app.diagrams.net" modified="2022-01-14T08:36:21.499Z" agent="5.0 (Windows)" etag="QI_P7hBMKamKyPqP-Wgv" version="16.2.6" type="github">
  <diagram id="eejfW6OrFHf019hXyGnV" name="Page-1">
    <mxGraphModel dx="782" dy="420" grid="1" gridSize="10" guides="1" tooltips="1" connect="1" arrows="1" fold="1" page="1" pageScale="1" pageWidth="850" pageHeight="1100" math="0" shadow="0">
      <root>
        <mxCell id="0" />
        <mxCell id="1" parent="0" />
        <mxCell id="pMGLcKPvKSRtXalgIiHo-2" style="edgeStyle=orthogonalEdgeStyle;rounded=0;orthogonalLoop=1;jettySize=auto;html=1;entryX=0;entryY=0.5;entryDx=0;entryDy=0;startArrow=none;" edge="1" parent="1" source="pMGLcKPvKSRtXalgIiHo-7" target="pMGLcKPvKSRtXalgIiHo-3">
          <mxGeometry relative="1" as="geometry">
            <mxPoint x="470" y="210" as="targetPoint" />
          </mxGeometry>
        </mxCell>
        <mxCell id="pMGLcKPvKSRtXalgIiHo-1" value="plain" style="rounded=0;whiteSpace=wrap;html=1;" vertex="1" parent="1">
          <mxGeometry x="270" y="170" width="50" height="40" as="geometry" />
        </mxCell>
        <mxCell id="pMGLcKPvKSRtXalgIiHo-5" style="edgeStyle=orthogonalEdgeStyle;rounded=0;orthogonalLoop=1;jettySize=auto;html=1;startArrow=none;" edge="1" parent="1" source="pMGLcKPvKSRtXalgIiHo-6" target="pMGLcKPvKSRtXalgIiHo-4">
          <mxGeometry relative="1" as="geometry" />
        </mxCell>
        <mxCell id="pMGLcKPvKSRtXalgIiHo-29" style="edgeStyle=orthogonalEdgeStyle;rounded=0;orthogonalLoop=1;jettySize=auto;html=1;exitX=1;exitY=1;exitDx=0;exitDy=0;entryX=0;entryY=0;entryDx=0;entryDy=0;startArrow=none;" edge="1" parent="1" source="pMGLcKPvKSRtXalgIiHo-30" target="pMGLcKPvKSRtXalgIiHo-28">
          <mxGeometry relative="1" as="geometry" />
        </mxCell>
        <mxCell id="pMGLcKPvKSRtXalgIiHo-3" value="bold" style="rounded=0;whiteSpace=wrap;html=1;" vertex="1" parent="1">
          <mxGeometry x="430" y="170" width="50" height="40" as="geometry" />
        </mxCell>
        <mxCell id="pMGLcKPvKSRtXalgIiHo-4" value="italic" style="rounded=0;whiteSpace=wrap;html=1;" vertex="1" parent="1">
          <mxGeometry x="430" y="330" width="50" height="40" as="geometry" />
        </mxCell>
        <mxCell id="pMGLcKPvKSRtXalgIiHo-7" value="strong" style="text;html=1;align=center;verticalAlign=middle;resizable=0;points=[];autosize=1;strokeColor=none;fillColor=none;" vertex="1" parent="1">
          <mxGeometry x="345" y="180" width="50" height="20" as="geometry" />
        </mxCell>
        <mxCell id="pMGLcKPvKSRtXalgIiHo-8" value="" style="edgeStyle=orthogonalEdgeStyle;rounded=0;orthogonalLoop=1;jettySize=auto;html=1;entryX=0;entryY=0.5;entryDx=0;entryDy=0;endArrow=none;" edge="1" parent="1" source="pMGLcKPvKSRtXalgIiHo-1" target="pMGLcKPvKSRtXalgIiHo-7">
          <mxGeometry relative="1" as="geometry">
            <mxPoint x="430" y="190" as="targetPoint" />
            <mxPoint x="320" y="190" as="sourcePoint" />
          </mxGeometry>
        </mxCell>
        <mxCell id="pMGLcKPvKSRtXalgIiHo-6" value="Text" style="text;html=1;align=center;verticalAlign=middle;resizable=0;points=[];autosize=1;strokeColor=none;fillColor=none;" vertex="1" parent="1">
          <mxGeometry x="435" y="260" width="40" height="20" as="geometry" />
        </mxCell>
        <mxCell id="pMGLcKPvKSRtXalgIiHo-9" value="" style="edgeStyle=orthogonalEdgeStyle;rounded=0;orthogonalLoop=1;jettySize=auto;html=1;endArrow=none;" edge="1" parent="1" source="pMGLcKPvKSRtXalgIiHo-3" target="pMGLcKPvKSRtXalgIiHo-6">
          <mxGeometry relative="1" as="geometry">
            <mxPoint x="455" y="210" as="sourcePoint" />
            <mxPoint x="455" y="330" as="targetPoint" />
          </mxGeometry>
        </mxCell>
        <mxCell id="pMGLcKPvKSRtXalgIiHo-14" value="" style="endArrow=classic;html=1;rounded=0;exitX=1;exitY=1;exitDx=0;exitDy=0;entryX=0;entryY=0;entryDx=0;entryDy=0;startArrow=none;" edge="1" parent="1" source="pMGLcKPvKSRtXalgIiHo-11" target="pMGLcKPvKSRtXalgIiHo-4">
          <mxGeometry width="50" height="50" relative="1" as="geometry">
            <mxPoint x="520" y="370" as="sourcePoint" />
            <mxPoint x="570" y="320" as="targetPoint" />
          </mxGeometry>
        </mxCell>
        <mxCell id="pMGLcKPvKSRtXalgIiHo-11" value="i" style="text;html=1;align=center;verticalAlign=middle;resizable=0;points=[];autosize=1;strokeColor=none;fillColor=none;" vertex="1" parent="1">
          <mxGeometry x="355" y="250" width="20" height="20" as="geometry" />
        </mxCell>
        <mxCell id="pMGLcKPvKSRtXalgIiHo-15" value="" style="endArrow=none;html=1;rounded=0;exitX=1;exitY=1;exitDx=0;exitDy=0;entryX=0;entryY=0;entryDx=0;entryDy=0;" edge="1" parent="1" source="pMGLcKPvKSRtXalgIiHo-1" target="pMGLcKPvKSRtXalgIiHo-11">
          <mxGeometry width="50" height="50" relative="1" as="geometry">
            <mxPoint x="320" y="210" as="sourcePoint" />
            <mxPoint x="430" y="330" as="targetPoint" />
          </mxGeometry>
        </mxCell>
        <mxCell id="pMGLcKPvKSRtXalgIiHo-19" value="" style="endArrow=classic;html=1;rounded=0;exitX=1;exitY=1;exitDx=0;exitDy=0;entryX=0;entryY=0.5;entryDx=0;entryDy=0;startArrow=none;" edge="1" parent="1" source="pMGLcKPvKSRtXalgIiHo-26" target="pMGLcKPvKSRtXalgIiHo-4">
          <mxGeometry width="50" height="50" relative="1" as="geometry">
            <mxPoint x="355" y="290" as="sourcePoint" />
            <mxPoint x="450" y="350" as="targetPoint" />
          </mxGeometry>
        </mxCell>
        <mxCell id="pMGLcKPvKSRtXalgIiHo-26" value="em" style="text;html=1;strokeColor=none;fillColor=none;align=center;verticalAlign=middle;whiteSpace=wrap;rounded=0;" vertex="1" parent="1">
          <mxGeometry x="330" y="270" width="30" height="20" as="geometry" />
        </mxCell>
        <mxCell id="pMGLcKPvKSRtXalgIiHo-27" value="" style="endArrow=none;html=1;rounded=0;exitX=0.5;exitY=1;exitDx=0;exitDy=0;entryX=0;entryY=0;entryDx=0;entryDy=0;startArrow=none;" edge="1" parent="1" source="pMGLcKPvKSRtXalgIiHo-1" target="pMGLcKPvKSRtXalgIiHo-26">
          <mxGeometry width="50" height="50" relative="1" as="geometry">
            <mxPoint x="295" y="210" as="sourcePoint" />
            <mxPoint x="430" y="350" as="targetPoint" />
          </mxGeometry>
        </mxCell>
        <mxCell id="pMGLcKPvKSRtXalgIiHo-28" value="bold and italic" style="rounded=0;whiteSpace=wrap;html=1;" vertex="1" parent="1">
          <mxGeometry x="540" y="250" width="50" height="40" as="geometry" />
        </mxCell>
        <mxCell id="pMGLcKPvKSRtXalgIiHo-30" value="i" style="text;html=1;strokeColor=none;fillColor=none;align=center;verticalAlign=middle;whiteSpace=wrap;rounded=0;" vertex="1" parent="1">
          <mxGeometry x="510" y="210" width="20" height="20" as="geometry" />
        </mxCell>
        <mxCell id="pMGLcKPvKSRtXalgIiHo-31" value="" style="edgeStyle=orthogonalEdgeStyle;rounded=0;orthogonalLoop=1;jettySize=auto;html=1;exitX=1;exitY=0.5;exitDx=0;exitDy=0;entryX=0;entryY=0;entryDx=0;entryDy=0;endArrow=none;" edge="1" parent="1" source="pMGLcKPvKSRtXalgIiHo-3" target="pMGLcKPvKSRtXalgIiHo-30">
          <mxGeometry relative="1" as="geometry">
            <mxPoint x="480" y="210" as="sourcePoint" />
            <mxPoint x="540" y="250" as="targetPoint" />
          </mxGeometry>
        </mxCell>
        <mxCell id="pMGLcKPvKSRtXalgIiHo-32" value="" style="curved=1;endArrow=classic;html=1;rounded=0;entryX=0.75;entryY=0;entryDx=0;entryDy=0;startArrow=none;" edge="1" parent="1" source="pMGLcKPvKSRtXalgIiHo-33" target="pMGLcKPvKSRtXalgIiHo-28">
          <mxGeometry width="50" height="50" relative="1" as="geometry">
            <mxPoint x="590" y="270" as="sourcePoint" />
            <mxPoint x="640" y="220" as="targetPoint" />
            <Array as="points">
              <mxPoint x="590" y="220" />
            </Array>
          </mxGeometry>
        </mxCell>
        <mxCell id="pMGLcKPvKSRtXalgIiHo-33" value="i" style="text;html=1;strokeColor=none;fillColor=none;align=center;verticalAlign=middle;whiteSpace=wrap;rounded=0;" vertex="1" parent="1">
          <mxGeometry x="600" y="200" width="30" height="20" as="geometry" />
        </mxCell>
        <mxCell id="pMGLcKPvKSRtXalgIiHo-34" value="" style="curved=1;endArrow=none;html=1;rounded=0;entryX=1;entryY=0;entryDx=0;entryDy=0;" edge="1" parent="1" target="pMGLcKPvKSRtXalgIiHo-33">
          <mxGeometry width="50" height="50" relative="1" as="geometry">
            <mxPoint x="590" y="270" as="sourcePoint" />
            <mxPoint x="577.5" y="250" as="targetPoint" />
            <Array as="points">
              <mxPoint x="640" y="270" />
              <mxPoint x="670" y="250" />
              <mxPoint x="700" y="205" />
            </Array>
          </mxGeometry>
        </mxCell>
        <mxCell id="pMGLcKPvKSRtXalgIiHo-35" value="" style="curved=1;endArrow=classic;html=1;rounded=0;exitX=0;exitY=0;exitDx=0;exitDy=0;entryX=0.5;entryY=1;entryDx=0;entryDy=0;startArrow=none;" edge="1" parent="1" source="pMGLcKPvKSRtXalgIiHo-36" target="pMGLcKPvKSRtXalgIiHo-28">
          <mxGeometry width="50" height="50" relative="1" as="geometry">
            <mxPoint x="520" y="370" as="sourcePoint" />
            <mxPoint x="570" y="320" as="targetPoint" />
            <Array as="points" />
          </mxGeometry>
        </mxCell>
        <mxCell id="pMGLcKPvKSRtXalgIiHo-36" value="em" style="text;html=1;strokeColor=none;fillColor=none;align=center;verticalAlign=middle;whiteSpace=wrap;rounded=0;" vertex="1" parent="1">
          <mxGeometry x="600" y="330" width="35" height="30" as="geometry" />
        </mxCell>
        <mxCell id="pMGLcKPvKSRtXalgIiHo-37" value="" style="curved=1;endArrow=none;html=1;rounded=0;exitX=1;exitY=0.75;exitDx=0;exitDy=0;entryX=1;entryY=0.5;entryDx=0;entryDy=0;" edge="1" parent="1" source="pMGLcKPvKSRtXalgIiHo-28" target="pMGLcKPvKSRtXalgIiHo-36">
          <mxGeometry width="50" height="50" relative="1" as="geometry">
            <mxPoint x="590" y="280" as="sourcePoint" />
            <mxPoint x="565" y="290" as="targetPoint" />
            <Array as="points">
              <mxPoint x="690" y="320" />
            </Array>
          </mxGeometry>
        </mxCell>
      </root>
    </mxGraphModel>
  </diagram>
</mxfile>
